<svg id="Layer_1" data-name="Layer 1" xmlns="http://www.w3.org/2000/svg" viewBox="0 0 86.61 125.82"><path d="M43.21,28.08V18.31A.44.44,0,0,0,43,18a6,6,0,0,0-3-1h-.17c-.79,0-6.9.23-7.84-4.24a.43.43,0,0,1,.42-.51h39.3s27.6-.87,37.24,13.53a.21.21,0,0,0,0,.06c.49.85,10.3,15.8-8,33.74-.49.49-2.22,2.26-2.7,1.88s.34-2.82.51-3.44c2.52-9.07,6-32.52-21.13-42.82,0,0-15.82-6-33.75,13.23A.43.43,0,0,1,43.21,28.08Z" transform="translate(-32 -12.18)"/><path d="M78.09,24.28s-32.27-9.52-35,30.95c0,0-2.41,17.83,24.83,31.94l20.23,11s16.7,5.62,10.39,25.25c-.14.43-.36.89-.51,1.32-.64,1.87-4.31,9.5-33.5,8.54V94.06a6.28,6.28,0,0,0-2.68-4.45l-16-12.26s-2.55-2.34-2.59,1v55.06s-5.34-.63-5,2.8c0,0-.22,1.82,2.58,1.77H82.32s38.7,1.39,36.18-40.46c0,0,.54-19.69-27.47-29,0,0-19.34-4.9-25.9-12.45a24.43,24.43,0,0,1-6-16S58.78,27.5,78.09,24.28Z" transform="translate(-32 -12.18)"/></svg>